<?xml version="1.0" encoding="UTF-8"?>
<svg xmlns="http://www.w3.org/2000/svg" viewBox="0 0 2025.04 836.33">
  <defs>
    <style>.cls-1{fill:#750014;}.cls-2{fill:#ff1423;}</style>
  </defs>
  <g id="Layer_2" data-name="Layer 2">
    <g id="Layer_1-2" data-name="Layer 1">
      <polygon class="cls-1" points="694.18 0 499.72 0 773.35 836.33 967.82 836.33 694.18 0"></polygon>
      <polygon class="cls-2" points="500.5 0 694.97 0 324.41 836.33 129.94 836.33 500.5 0"></polygon>
      <polygon class="cls-1" points="1143.91 0 1338.38 0 1708.93 836.33 1514.47 836.33 1143.91 0"></polygon>
      <polygon class="cls-2" points="1143.91 0 1338.38 0 967.82 836.33 773.35 836.33 1143.91 0"></polygon>
      <polygon class="cls-2" points="1788.1 0 1982.57 0 1708.93 836.33 1514.47 836.33 1788.1 0"></polygon>
      <path class="cls-2" d="M1246.18,806.83c-39.85,0-58.83-120.17-78.92-247.38-19.09-120.82-38.82-245.76-76.85-245.76-37.46,0-55.94,69.41-73.82,136.53-19,71.41-38.69,145.26-82,145.26-45.36,0-68.24-98.89-90.36-194.52-18.76-81.11-36.48-157.72-65.41-157.72-29.43,0-49.26,115.6-68.42,227.4C688,601.28,664.86,736.38,623.09,736.38c-41.31,0-63.89-76.29-85.74-150.07-20.05-67.74-39-131.72-70-131.72s-50,47.93-70.06,98.69c-21.87,55.38-44.47,112.65-85.71,112.65-40.32,0-61.34-55.34-81.67-108.86C210.74,506.68,191,454.59,155.77,454.59c-32.42,0-44.8,13.76-59.13,29.69C79.47,503.38,60,525,0,525v-1.88c59,0,78.14-21.29,95-40.06,14-15.63,27.32-30.39,60.74-30.39,36.67,0,55.82,50.4,76.08,103.75C252,609.35,272.72,664,311.55,664c39.76,0,62.12-56.63,83.74-111.4,20.29-51.4,39.45-99.94,72-99.94s51.78,64.66,72.05,133.12c21.64,73.09,44,148.67,83.72,148.67,40,0,64-140.33,85.28-264.14,20.19-117.76,39.27-229,70.49-229,30.63,0,48.51,77.34,67.45,159.22,20.93,90.48,44.65,193,88.32,193,41.63,0,61.1-73.11,79.93-143.82,18.9-70.95,36.75-138,75.85-138,39.84,0,58.82,120.16,78.91,247.38,19.09,120.82,38.82,245.76,76.86,245.76,38.42,0,58.72-90.3,78.35-177.62,20.18-89.8,39.25-174.62,77.42-174.62,38,0,58,35.62,77.33,70.06,19.57,34.82,39.81,70.83,78.44,70.83,38.13,0,57.83-71.26,76.87-140.18,19.25-69.62,39.14-141.61,78.9-141.61s59.66,72,78.9,141.61c19,68.92,38.75,140.18,76.88,140.18,40.34,0,63.09-19,85.08-37.43,20.29-17,39.46-33,70.69-33V525c-30.41,0-49.29,15.8-69.27,32.52-22.29,18.65-45.34,37.93-86.5,37.93-39.76,0-59.66-72-78.9-141.61-19-68.92-38.75-140.18-76.88-140.18s-57.82,71.26-76.87,140.18c-19.24,69.62-39.14,141.61-78.9,141.61-39.91,0-60.44-36.53-80.3-71.86-20-35.5-38.79-69-75.47-69-36.46,0-56.25,88-75.38,173.11C1306.78,715.76,1286.31,806.83,1246.18,806.83Z"></path>
      <path class="cls-2" d="M1255.84,778.64c-35.91,0-59.15-108.16-83.75-222.67-23.36-108.72-47.51-221.15-81.7-221.15-33.66,0-54.2,62.46-74.06,122.86-21.14,64.28-43,130.76-82,130.76-40.87,0-66.76-89-91.79-175.1-21.22-73-41.27-141.92-67.26-141.92-26.44,0-50.18,104-73.13,204.62-26.84,117.6-54.58,239.2-92.23,239.2-37.21,0-61.8-68.67-85.58-135.08C502.53,519.21,481.92,461.63,454,461.63s-47.88,43.14-69,88.81c-23,49.85-46.82,101.4-84,101.4-36.32,0-58.6-49.82-80.14-98-20.28-45.34-41.24-92.22-72.87-92.22-29.17,0-41.85,12.39-56.54,26.74C73.94,505.56,54,525,0,525v-1.88c53.1,0,72.7-19.16,90-36.06,14.39-14.07,28-27.35,58.07-27.35,33,0,53.32,45.37,74.8,93.4,21.29,47.59,43.3,96.81,78.21,96.81,35.75,0,59.29-51,82-100.24,21.37-46.27,41.55-90,70.9-90S504.28,518,526.35,579.58c23.55,65.77,47.9,133.77,83.59,133.77,35.94,0,64.76-126.28,90.18-237.69,24.19-106,47-206.13,75.18-206.13,27.61,0,47.85,69.62,69.28,143.33,23.68,81.41,50.51,173.69,89.77,173.69,37.42,0,59.06-65.79,80-129.41,21-63.87,40.84-124.2,76.06-124.2,35.91,0,59.15,108.16,83.75,222.67,23.36,108.72,47.51,221.15,81.7,221.15,34.54,0,57.64-81.25,80-159.83,23-80.83,44.69-157.19,79.09-157.19,34.18,0,54.74,32.06,74.61,63.06,20.1,31.34,40.88,63.75,75.62,63.75,34.28,0,56-64.13,77-126.14,21.22-62.67,43.17-127.47,79-127.47s57.76,64.8,79,127.47c21,62,42.72,126.14,77,126.14,36.3,0,58.87-17.13,80.68-33.7,20.13-15.27,39.14-29.7,67.26-29.7V525c-27.36,0-46.09,14.22-65.91,29.27-22.11,16.78-45,34.14-82,34.14-35.82,0-57.76-64.81-79-127.48-21-62-42.72-126.14-77-126.14s-56,64.13-77,126.14c-21.22,62.67-43.17,127.48-79,127.48s-57-32.89-77.42-64.69-39.83-62.12-72.81-62.12c-32.78,0-55.3,79.19-77.07,155.77C1315.3,696.67,1292,778.64,1255.84,778.64Z"></path>
      <path class="cls-2" d="M1265.5,750.47c-32,0-59.46-96.16-88.57-198C1149.3,455.87,1120.72,356,1090.38,356c-29.89,0-52.48,55.5-74.32,109.18-23.26,57.15-47.3,116.25-82,116.25-36.37,0-65.27-79.13-93.21-155.67-23.69-64.86-46.05-126.12-69.12-126.12-23.46,0-51.11,92.45-77.85,181.85C662.63,586,630.3,694.11,596.79,694.11c-33.11,0-59.7-61.05-85.42-120.09-23.59-54.18-45.88-105.35-70.64-105.35S395,507,372.84,547.61c-24.18,44.31-49.18,90.14-82.23,90.14-32.31,0-55.85-44.29-78.6-87.12-21.42-40.29-43.56-82-71.64-82-25.92,0-38.91,11-53.95,23.79C68.42,507.73,48,525,0,525v-1.88c47.19,0,67.27-17,85-32.07,14.72-12.49,28.63-24.29,55.38-24.29,29.4,0,50.83,40.33,73.52,83,22.48,42.3,45.72,86,76.72,86,31.75,0,56.46-45.29,80.36-89.09,22.44-41.13,43.64-80,69.76-80s48.72,51.75,72.58,106.54c25.47,58.45,51.79,118.89,83.48,118.89,31.91,0,65.47-112.23,95.09-211.26,28.18-94.24,54.8-183.25,79.86-183.25,24.58,0,46.14,59.05,71.1,127.42,26.42,72.36,56.37,154.37,91.23,154.37,33.23,0,57-58.47,80-115,23.11-56.79,44.93-110.42,76.28-110.42,32,0,59.45,96.16,88.57,198,27.63,96.63,56.2,196.55,86.55,196.55,30.66,0,56.57-72.21,81.62-142.05,25.78-71.86,50.13-139.74,80.74-139.74,30.41,0,51.5,28.49,71.9,56.05,20.62,27.86,41.94,56.66,72.8,56.66,30.43,0,54.17-57,77.12-112.1,24.28-58.28,47.21-113.33,79.08-113.33s54.8,55.05,79.07,113.33c23,55.11,46.68,112.1,77.12,112.1,32.25,0,54.63-15.23,76.28-30,20-13.58,38.8-26.4,63.81-26.4V525c-24.31,0-42.88,12.65-62.56,26-21.91,14.91-44.58,30.33-77.53,30.33-31.88,0-54.8-55-79.07-113.33-23-55.11-46.69-112.1-77.12-112.1s-54.17,57-77.12,112.1c-24.28,58.28-47.2,113.33-79.08,113.33S1519,552.16,1498,523.89s-40.86-55.22-70.16-55.22c-29.09,0-54.34,70.38-78.75,138.45C1322.66,680.84,1297.68,750.47,1265.5,750.47Z"></path>
      <path class="cls-2" d="M1275.16,722.29c-28,0-59.76-84.15-93.39-173.24-31.9-84.54-64.89-172-91.41-172-26.12,0-50.75,48.57-74.58,95.53-25.38,50-51.61,101.73-82,101.73-31.85,0-63.76-69.25-94.61-136.22-26.15-56.75-50.84-110.35-71-110.35-20.49,0-52,80.88-82.57,159.1C649.91,578.37,613,673,583.65,673c-29,0-57.6-53.43-85.25-105.09-24.26-45.31-49.33-92.17-71-92.17s-43.6,33.55-66.81,69.06c-25.33,38.78-51.53,78.88-80.48,78.88-28.3,0-53.09-38.75-77.06-76.23-22.55-35.25-45.87-71.71-70.41-71.71-22.68,0-36,9.65-51.38,20.82C62.88,509.9,42,525,0,525v-1.88c41.29,0,61.84-14.92,80-28.08,15.06-10.92,29.27-21.24,52.69-21.24,25.75,0,48.32,35.29,72.22,72.66,23.67,37,48.16,75.28,75.25,75.28,27.76,0,53.65-39.63,78.69-77.95,23.51-36,45.72-70,68.6-70s47.18,45.29,72.84,93.23c27.38,51.14,55.68,104,83.38,104,27.88,0,66.19-98.2,100-184.84,32.18-82.47,62.57-160.36,84.54-160.36,21.54,0,45.35,51.68,72.91,111.51,29.17,63.31,62.23,135.06,92.69,135.06,29.05,0,55-51.16,80.1-100.63,25.21-49.69,49-96.62,76.48-96.62,28,0,59.77,84.14,93.39,173.23,31.91,84.54,64.9,172,91.41,172,26.79,0,55.5-63.18,83.27-124.28,28.57-62.89,55.57-122.29,82.39-122.29,26.63,0,48.25,24.93,69.17,49.05,21.14,24.37,43,49.58,70,49.58,26.59,0,52.35-49.86,77.26-98.08,26.35-51,51.23-99.17,79.16-99.17s52.8,48.17,79.13,99.17c24.91,48.22,50.66,98.08,77.25,98.08,28.22,0,50.42-13.33,71.9-26.22,19.78-11.88,38.47-23.09,60.36-23.09V525c-21.26,0-39.69,11.07-59.21,22.79-21.73,13-44.2,26.53-73,26.53-27.92,0-52.8-48.17-79.13-99.17-24.91-48.22-50.66-98.09-77.25-98.09S1684,427,1659.13,475.18c-26.34,51-51.23,99.17-79.15,99.17s-50.18-25.58-71.64-50.31c-20.6-23.75-41.91-48.32-67.52-48.32-25.42,0-53.4,61.58-80.46,121.12C1331,661.35,1303.36,722.29,1275.16,722.29Z"></path>
      <path class="cls-2" d="M1284.82,694.11c-24,0-60-72.13-98.18-148.5-36.19-72.46-73.6-147.38-96.29-147.38-22.36,0-49,41.62-74.86,81.87-27.49,42.87-55.91,87.2-82,87.2-27.34,0-62.25-59.36-96-116.76C808.88,401.9,781.86,356,764.62,356c-17.53,0-53,69.32-87.3,136.36-40.13,78.43-81.63,159.52-106.82,159.52-24.89,0-55.48-45.79-85.07-90.07-25.94-38.84-52.77-79-71.29-79s-41.49,28.75-65.75,59.2c-26.49,33.23-53.88,67.6-78.72,67.6-24.28,0-50.32-33.21-75.5-65.33C170.48,514,146,482.77,125,482.77c-19.44,0-33,8.28-48.82,17.86C57.34,512.07,36,525,0,525v-1.88c35.38,0,56.42-12.8,75-24.09,15.39-9.35,29.91-18.18,50-18.18,22.09,0,45.8,30.24,70.91,62.27,24.87,31.72,50.59,64.53,73.79,64.53,23.77,0,50.84-34,77-66.82,24.58-30.85,47.8-60,67.44-60s45.63,38.81,73.08,79.91C516.5,604.62,546.79,650,570.5,650s66.93-84.16,104.92-158.42c36.17-70.69,70.34-137.46,89.2-137.46,18.49,0,44.55,44.3,74.71,95.58,31.91,54.26,68.09,115.76,94.17,115.76,24.87,0,53-43.85,80.18-86.25,27.31-42.59,53.1-82.82,76.67-82.82,24,0,60.05,72.13,98.19,148.5,36.18,72.45,73.59,147.38,96.28,147.38,22.94,0,54.45-54.15,84.93-106.52,31.37-53.9,61-104.82,84-104.82,22.84,0,45,21.36,66.42,42,21.67,20.9,44.08,42.51,67.2,42.51,22.77,0,50.55-42.74,77.41-84.07,28.42-43.71,55.26-85,79.22-85s50.79,41.29,79.2,85c26.86,41.33,54.62,84.07,77.39,84.07,24.18,0,46.21-11.43,67.51-22.48,19.62-10.18,38.14-19.78,56.91-19.78V525c-18.22,0-36.5,9.49-55.87,19.54-21.54,11.18-43.82,22.73-68.55,22.73-24,0-50.79-41.29-79.19-85-26.86-41.33-54.63-84.07-77.4-84.07s-50.55,42.74-77.42,84.07c-28.41,43.71-55.25,85-79.21,85s-46.75-21.91-68.73-43.11c-21.12-20.36-43-41.42-64.89-41.42-21.76,0-52.48,52.77-82.18,103.81C1339.41,641.88,1309,694.11,1284.82,694.11Z"></path>
      <path class="cls-2" d="M1294.48,665.93c-20.06,0-60.33-60.1-103-123.74-40.46-60.38-82.3-122.83-101.18-122.83-18.62,0-47.37,34.7-75.17,68.25-29.6,35.72-60.2,72.65-81.95,72.65-22.8,0-60.72-49.46-97.39-97.29-31.07-40.54-60.43-78.83-74.77-78.83-14.58,0-54,57.77-92.06,113.64-44.56,65.35-90.63,132.93-111.65,132.93-20.76,0-53.35-38.16-84.86-75.05-27.65-32.37-56.24-65.85-71.64-65.85s-39.38,24-64.71,49.35c-27.64,27.69-56.22,56.32-76.94,56.32-20.25,0-47.53-27.67-73.91-54.43-24.84-25.19-50.53-51.24-68-51.24-16.2,0-30.8,7.24-46.27,14.91C51.79,514.24,30,525,0,525v-1.88c29.49,0,51-10.67,70-20.09,15.7-7.79,30.54-15.14,47.27-15.14,18.43,0,43.27,25.2,69.57,51.88,26.08,26.44,53,53.79,72.36,53.79,19.79,0,48.06-28.31,75.39-55.7,25.65-25.7,49.87-50,66.26-50s44,32.34,73.29,66.58c31.21,36.54,63.47,74.32,83.21,74.32s67.68-70.14,109.87-132c41.9-61.46,78.09-114.54,93.84-114.54,15.43,0,43.73,36.9,76.49,79.64,34.66,45.22,74,96.48,95.67,96.48,20.7,0,51-36.55,80.28-71.89s57.18-69,76.84-69c20.06,0,60.33,60.11,103,123.74C1233.76,601.6,1275.6,664,1294.48,664c19.09,0,53.42-45.13,86.61-88.78,34.17-44.91,66.44-87.34,85.64-87.34,19,0,40.72,17,63.66,35,22.21,17.43,45.18,35.45,64.43,35.45,19,0,48.76-35.62,77.59-70.07,30.48-36.43,59.26-70.83,79.26-70.83s48.76,34.4,79.23,70.83c28.81,34.45,58.61,70.07,77.56,70.07,20.14,0,42-9.53,63.14-18.75,19.43-8.47,37.79-16.47,53.44-16.47V525c-15.17,0-33.32,7.92-52.53,16.29-21.35,9.31-43.43,18.94-64,18.94-20,0-48.77-34.4-79.23-70.82-28.81-34.46-58.61-70.08-77.56-70.08s-48.77,35.62-77.6,70.08c-30.47,36.42-59.26,70.82-79.25,70.82S1551.53,542,1529,524.35c-21.65-17-44-34.54-62.3-34.54-18.11,0-51.56,44-83.92,86.52C1347.77,622.41,1314.67,665.93,1294.48,665.93Z"></path>
      <path class="cls-2" d="M1304.14,637.75c-16.06,0-60.58-48.07-107.7-99-44.75-48.32-91-98.29-106.12-98.29-14.88,0-45.69,27.76-75.5,54.62-31.69,28.56-64.47,58.09-81.88,58.09-18.26,0-59.17-39.55-98.73-77.8-32.08-31-65.25-63.09-76.71-63.09-11.65,0-55,46.23-96.85,90.94-49,52.26-99.61,106.31-116.45,106.31-16.62,0-51.19-30.51-84.62-60-29.36-25.91-59.72-52.7-72-52.7s-38.45,20.08-63.69,39.5c-28.78,22.14-58.54,45-75.12,45-16.22,0-44.74-22.12-72.32-43.52-26-20.16-52.87-41-66.86-41-13,0-27.89,5.8-43.71,11.94C46.24,516.41,24,525,0,525v-1.88c23.59,0,45.6-8.55,65-16.09C81,500.84,96.18,495,109.56,495c14.76,0,40.73,20.14,68.22,41.47,27.29,21.17,55.51,43.06,71,43.06,15.81,0,45.27-22.66,73.76-44.58C349.21,514.37,374.43,495,387.55,495S430,520.83,461,548.21c33.13,29.24,67.39,59.47,83.16,59.47S612.66,551.56,659.06,502c46.05-49.16,85.82-91.61,98.44-91.61,12.36,0,42.89,29.51,78.24,63.69,37.42,36.19,79.84,77.2,97.2,77.2,16.55,0,49-29.25,80.41-57.54s61.23-55.17,77-55.17c16.07,0,60.59,48.07,107.72,99,44.75,48.32,91,98.28,106.1,98.28,15.26,0,52.4-36.11,88.33-71,36.94-35.92,71.84-69.85,87.22-69.85s37.41,13.59,60.88,28c22.75,13.95,46.28,28.37,61.66,28.37,15.15,0,47-28.51,77.8-56.08,32.54-29.12,63.26-56.63,79.27-56.63s46.72,27.51,79.24,56.63c30.78,27.57,62.62,56.08,77.76,56.08,16.11,0,37.8-7.62,58.77-15,19.25-6.78,37.44-13.17,50-13.17V525c-12.13,0-30.14,6.34-49.21,13.05-21.15,7.44-43,15.13-59.53,15.13-16,0-46.72-27.51-79.23-56.63-30.79-27.57-62.62-56.08-77.77-56.08s-47,28.51-77.8,56.08c-32.53,29.12-63.26,56.63-79.27,56.63s-39.82-14.59-62.83-28.7c-22.18-13.6-45.1-27.65-59.71-27.65S1429,532.06,1394,566.1C1356.1,603,1320.31,637.75,1304.14,637.75Z"></path>
      <path class="cls-2" d="M1313.8,609.57c-12,0-60.8-36-112.41-74.18-49.05-36.26-99.77-73.76-111.08-73.76-11.15,0-44.06,20.84-75.87,41-35.34,22.39-68.72,43.54-81.79,43.54-13.7,0-57.58-29.65-100-58.32-34.47-23.28-70.1-47.35-78.69-47.35s-56,34.69-101.69,68.24c-53.37,39.18-108.56,79.7-121.19,79.7-12.48,0-49-22.87-84.36-45C415.62,524,383.48,503.9,374.26,503.9S337.82,519,311.54,533.55c-29.9,16.6-60.83,33.75-73.27,33.75-12.17,0-41.91-16.57-70.68-32.61-27.16-15.14-55.25-30.79-65.73-30.79-9.71,0-25,4.36-41.18,9C40.68,518.57,18,525,0,525v-1.88c17.69,0,40.2-6.42,60.05-12.08,16.34-4.66,31.78-9.06,41.81-9.06,11.07,0,38.16,15.09,66.83,31.08s58,32.32,69.58,32.32c11.85,0,42.52-17,72.18-33.46,27.75-15.4,54-29.94,63.81-29.94s40.84,19.38,73.63,39.9c35.07,21.94,71.34,44.64,83.17,44.64s69.26-42.12,119.87-79.27c50.19-36.85,93.54-68.67,103-68.67,9.28,0,42,22.12,79.94,47.73,40.2,27.16,85.76,57.94,98.77,57.94,12.41,0,47.07-22,80.59-43.19s65.26-41.35,77.07-41.35c12,0,60.8,36,112.41,74.18,49,36.26,99.77,73.76,111.08,73.76s51.43-27.11,90.1-53.32c39.7-26.92,77.21-52.35,88.75-52.35s34.09,10.18,58.06,21c23.31,10.48,47.4,21.31,58.94,21.31,11.36,0,45.26-21.4,78-42.1,34.57-21.82,67.22-42.44,79.23-42.44s44.66,20.62,79.21,42.44c32.77,20.7,66.65,42.1,78,42.1,12.08,0,33.6-5.73,54.42-11.27,19.07-5.07,37.08-9.86,46.48-9.86V525c-9.1,0-27,4.76-45.89,9.79-21,5.58-42.63,11.35-55,11.35-12,0-44.64-20.62-79.19-42.44-32.77-20.7-66.66-42.1-78-42.1s-45.25,21.4-78,42.1c-34.57,21.82-67.23,42.44-79.24,42.44s-36.35-10.94-59.86-21.51c-22.71-10.21-46.19-20.76-57.14-20.76s-49.82,26.42-87.5,52C1364.41,583.48,1325.94,609.57,1313.8,609.57Z"></path>
      <path class="cls-2" d="M1323.47,581.39c-8,0-61-24-117.06-49.41-53.38-24.2-108.57-49.21-116.11-49.21s-42.45,13.91-76.3,27.37c-37.5,14.9-72.92,29-81.63,29-9.13,0-56-19.74-101.28-38.84-36.87-15.54-75-31.61-80.71-31.61s-57,23.16-106.58,45.54c-57.75,26.1-117.47,53.09-125.89,53.09s-46.81-15.22-84-29.95c-32.82-13-66.76-26.41-72.91-26.41s-34.43,10.07-61.77,19.8c-31,11-63.09,22.47-71.39,22.47-8.11,0-37.69-10.54-69-21.71-28.34-10.11-57.65-20.56-64.64-20.56-6.48,0-22.11,2.91-38.65,6C35.12,520.73,12,525,0,525v-1.88c11.79,0,34.8-4.29,55.09-8.06,17.37-3.24,32.38-6,39.07-6,7.38,0,35.57,10.05,65.41,20.68s60.51,21.58,68.23,21.58c7.9,0,39.79-11.35,70.63-22.34,28.78-10.24,56-19.92,62.53-19.92s39.21,12.9,73.75,26.56c35.3,14,75.32,29.79,83.2,29.79s70.1-28.09,125-52.88c54.31-24.55,101.2-45.74,107.52-45.74s41.13,14.73,81.59,31.78c43,18.13,91.73,38.67,100.4,38.67,8.27,0,45.14-14.66,80.79-28.83s69.26-27.53,77.14-27.53c8,0,61,24,117,49.41,53.38,24.19,108.57,49.21,116.12,49.21s50.46-18.09,91.89-35.59c42.45-17.92,82.55-34.85,90.24-34.85s30.76,6.77,55.24,13.95c23.87,7,48.54,14.23,56.23,14.23s43.54-14.29,78.33-28.1c36.6-14.54,71.16-28.26,79.17-28.26s42.56,13.72,79.13,28.26c34.77,13.81,70.71,28.1,78.28,28.1,8,0,29.41-3.83,50.07-7.53,18.89-3.37,36.72-6.56,43-6.56V525c-6.06,0-23.8,3.18-42.58,6.54-20.76,3.71-42.22,7.55-50.48,7.55-8,0-42.55-13.72-79.12-28.25-34.77-13.82-70.72-28.1-78.29-28.1s-43.54,14.28-78.33,28.1c-36.6,14.53-71.16,28.25-79.17,28.25s-31.75-7-56.87-14.31c-23.25-6.82-47.3-13.87-54.6-13.87s-49,17.63-89.35,34.68C1372.69,564,1331.55,581.39,1323.47,581.39Z"></path>
      <path class="cls-2" d="M1333.13,553.21c-4,0-61.16-12-121.66-24.68-57.73-12.11-117.41-24.63-121.19-24.63s-40.83,7-76.73,13.7c-39.65,7.45-77.11,14.48-81.46,14.48-4.57,0-54.35-9.86-102.48-19.39-39.3-7.79-79.93-15.83-82.79-15.83s-58.12,11.58-111.51,22.79c-65,13.64-126.34,26.52-130.55,26.52s-42.79-7.27-83.68-15C386.5,524.71,350.74,518,347.67,518s-32.45,5-60.84,9.91c-32.13,5.52-65.35,11.22-69.5,11.22s-34.78-5.26-67.3-10.84C120.49,523.22,90,518,86.46,518c-3.24,0-19.21,1.46-36.12,3C29.56,522.89,6,525,0,525v-1.88c5.9,0,29.4-2.15,50.13-4,17.7-1.62,33-3,36.33-3,3.69,0,33,5,64,10.33s63.05,10.81,66.91,10.81,38.57-6,69.11-11.19c29.8-5.12,57.95-9.95,61.23-9.95s36,6.15,73.83,13.26c37.18,7,79.32,14.92,83.26,14.92s71-14.06,130.08-26.47c67.71-14.21,109-22.84,112-22.84s40.23,7.35,83.23,15.87c45.79,9.07,97.7,19.35,102,19.35,4.14,0,43.23-7.34,81-14.44,37.65-7.06,73.21-13.74,77.15-13.74s61.16,12,121.66,24.68c57.72,12.11,117.41,24.63,121.19,24.63s49.52-9.05,93.72-17.81c45.19-9,87.86-17.41,91.71-17.41s27.41,3.38,52.4,7c24.43,3.5,49.68,7.12,53.53,7.12s41.85-7.15,78.66-14.07c38.6-7.26,75-14.11,79-14.11s40.45,6.86,79,14.11c36.77,6.92,74.79,14.07,78.58,14.07,4,0,25.22-1.91,45.73-3.76,18.69-1.69,36.36-3.28,39.49-3.28V525c-3,0-20.64,1.59-39.28,3.28-20.56,1.85-41.81,3.77-45.94,3.77s-40.43-6.85-79-14.11C1824,511.05,1786,503.9,1782.2,503.9s-41.83,7.15-78.63,14.07c-38.61,7.25-75.08,14.11-79.08,14.11s-28.22-3.47-53.85-7.15c-23.81-3.41-48.43-6.94-52.08-6.94s-48.17,8.83-91.26,17.36C1381,544.54,1337.17,553.21,1333.13,553.21Z"></path>
      <rect class="cls-2" y="523.15" width="2025.04" height="1.89"></rect>
    </g>
  </g>
</svg>
